<svg width="25" height="24" viewBox="0 0 25 24" fill="none" xmlns="http://www.w3.org/2000/svg">
<g clip-path="url(#clip0)">
<path d="M17.0984 8.16504H7.90162C3.53781 8.16504 0 11.7088 0 16.0818C0 20.4548 3.53781 24.0001 7.90162 24.0001H17.0984C21.4622 24.0001 25 20.4548 25 16.0818C25 11.7088 21.4622 8.16504 17.0984 8.16504ZM16.9261 23.0922C13.0637 23.0922 9.93201 19.9539 9.93201 16.0833C9.93201 12.2128 13.0637 9.07448 16.9261 9.07448C20.7885 9.07448 23.9202 12.2128 23.9202 16.0833C23.9202 19.9539 20.7885 23.0922 16.9261 23.0922Z" fill="#34C759"/>
<path d="M16.0047 4.68462C16.0047 5.68192 16.2631 6.61756 16.7169 7.42835C14.5112 7.04762 12.833 5.12084 12.833 2.80099C12.833 2.50966 12.8592 2.2245 12.9115 1.94704C13.3421 1.81602 13.8005 1.74512 14.2743 1.74512C15.0895 1.74512 15.8571 1.95475 16.5246 2.32161C16.1908 3.03991 16.0047 3.83991 16.0047 4.68462Z" fill="#34C759"/>
<path d="M22.2067 2.80077C22.2067 4.92023 20.8069 6.71137 18.8827 7.29557C18.552 7.39576 18.2074 7.46204 17.849 7.48516H17.8475C17.2676 6.70366 16.9246 5.7341 16.9246 4.68439C16.9246 4.03391 17.0568 3.41426 17.2953 2.8501C17.9674 1.26243 19.4856 0.123314 21.2838 0C21.8636 0.781503 22.2067 1.75106 22.2067 2.80077Z" fill="#34C759"/>
</g>
<defs>
<clipPath id="clip0">
<rect width="25" height="24" fill="white"/>
</clipPath>
</defs>
</svg>
